<svg id="Layer_1" data-name="Layer 1" xmlns="http://www.w3.org/2000/svg" xmlns:xlink="http://www.w3.org/1999/xlink" width="131.8" height="68.25" viewBox="0 0 131.8 68.25"><defs><style>.cls-1{fill:none;}.cls-2{clip-path:url(#clip-path);}.cls-3{fill:#e8e8e8;}.cls-4{opacity:0.11;}.cls-5{opacity:0.07;}</style><clipPath id="clip-path"><path id="Left_Trigger" data-name="Left Trigger" class="cls-1" d="M131.8,68.25s-14.18-40.52-47-58.52S18,2.14,0,13.43Z"/></clipPath></defs><title>R-button</title><g id="Left_Trigger-2" data-name="Left Trigger"><g class="cls-2"><path id="Left_Trigger-3" data-name="Left Trigger" class="cls-3" d="M131.8,68.25s-14.18-40.52-47-58.52S18,2.14,0,13.43Z"/><path class="cls-4" d="M72.34,42.92H67a4.64,4.64,0,0,0-.26-1.05L62.65,31.46V42q0,.49,0,.92H57.76a6.77,6.77,0,0,0,.07-1V20.23a8,8,0,0,0-.07-1h6.37a7.26,7.26,0,0,1,5.42,1.94,7.52,7.52,0,0,1,1.9,5.45A6.65,6.65,0,0,1,67.81,33Zm-6-16.42A3,3,0,0,0,65.38,24a4.47,4.47,0,0,0-2.73-.72v6.5a4.84,4.84,0,0,0,2.86-.72A3.3,3.3,0,0,0,66.3,26.5Z"/><path class="cls-5" d="M63.2,43.43h-6l.08-.54a6.28,6.28,0,0,0,.06-.89V20.23a7.6,7.6,0,0,0-.06-.93l-.07-.53h6.91a7.74,7.74,0,0,1,5.76,2.08,8,8,0,0,1,2,5.78,7.13,7.13,0,0,1-3.51,6.6L73.08,43.4H66.57L66.52,43a4.17,4.17,0,0,0-.24-.94L63.13,34V42q0,.47,0,.88Zm-4.91-.95h3.9c0-.14,0-.29,0-.45V22.84h.48a4.86,4.86,0,0,1,3,.83,3.4,3.4,0,0,1,1.1,2.83,3.68,3.68,0,0,1-1,3,5.16,5.16,0,0,1-3.11.83L67.17,41.7a5.28,5.28,0,0,1,.22.75H71.6l-4.41-9.62.4-.21a6.16,6.16,0,0,0,3.39-6,7.1,7.1,0,0,0-1.77-5.12,6.84,6.84,0,0,0-5.08-1.79H58.28c0,.18,0,.35,0,.51V42Q58.3,42.25,58.28,42.48Zm4.84-18.67v5.51a3.7,3.7,0,0,0,2.08-.59,3,3,0,0,0,.62-2.23,2.54,2.54,0,0,0-.74-2.09A3.54,3.54,0,0,0,63.13,23.81Z"/></g></g></svg>